<svg width="535" height="603" viewBox="0 0 535 603" fill="none" xmlns="http://www.w3.org/2000/svg">
<circle cx="267.453" cy="268.003" r="267.453" fill="#4CB7D8"/>
<g filter="url(#filter0_d)">
<path d="M449.216 458.256C442.961 444.028 430.945 432.153 416.511 426.31C401.48 420.224 384.218 422.438 368.385 420.4C354.628 418.63 344.713 412.492 336.5 401.577C328.633 391.12 321.578 379.539 308.726 374.7C298.562 370.877 287.006 371.939 276.904 375.92C258.29 383.261 244.23 398.865 232.388 414.412C221.577 428.607 212.76 444.15 192.763 444.656C172.766 445.162 153.704 433.754 133.559 436.773C106.933 440.77 84.7605 462.936 80.1091 489.323C75.7536 514.053 86.6813 538.041 105.456 552.135H428.145C451.801 527.039 464.217 492.359 449.216 458.256Z" fill="#F7F0E3"/>
<path d="M157.504 552.122H158.391C164.694 545.138 169.48 536.923 172.449 527.996C177.418 513.225 177.21 497.722 171.86 484.344C169.156 477.596 165.254 471.284 161.478 465.189C157.649 459.009 153.691 452.619 151.004 445.772C149.877 442.876 149.064 439.868 148.58 436.799L147.913 436.719C148.4 439.897 149.235 443.012 150.402 446.008C153.109 452.91 157.086 459.326 160.93 465.529C164.691 471.598 168.579 477.876 171.261 484.583C176.553 497.82 176.758 513.163 171.837 527.789C168.833 536.822 163.947 545.115 157.504 552.122Z" fill="white"/>
<path d="M426.585 523.978C433.235 525.396 439.641 526.665 445.837 527.464C445.943 527.259 446.047 527.054 446.151 526.849C439.903 526.055 433.432 524.773 426.72 523.343C416.493 521.165 405.435 518.806 394.445 518.806C387.647 518.806 380.885 519.709 374.381 522.12C371.908 523.039 369.529 524.195 367.279 525.572C361.405 523.07 355.5 520.337 349.652 517.336C353.896 514.139 358.187 511.008 362.521 507.992C394.707 485.523 424.402 472.784 453.094 469.168C453.037 468.958 452.977 468.748 452.917 468.537C424.147 472.171 394.385 484.954 362.153 507.471C357.724 510.562 353.346 513.762 349.013 517.028C342.368 513.611 335.903 509.855 329.645 505.773C318.224 498.298 304.664 487.628 292.812 473.448C338.742 468.296 385.503 461.805 423.69 436.283C425.141 435.314 426.748 434.17 428.412 432.875L427.856 432.485C426.263 433.721 424.724 434.821 423.332 435.743C385.155 461.257 338.306 467.699 292.319 472.859C283.943 462.736 276.46 450.831 271.261 437.056C263.16 415.599 263.588 394.543 272.434 379.284C272.818 378.622 273.213 377.968 273.641 377.325C273.272 377.493 272.906 377.67 272.54 377.844C272.312 378.212 272.09 378.583 271.873 378.957C262.929 394.385 262.485 415.643 270.653 437.282C275.826 450.981 283.242 462.832 291.548 472.942C288.887 473.24 286.227 473.535 283.569 473.827C273.994 474.884 264.102 475.976 254.475 477.214C250.965 477.666 247.396 478.193 243.832 478.855C236.219 462.786 227.856 447.111 217.045 433.666C216.889 433.819 216.734 433.97 216.578 434.123C227.295 447.464 235.607 463.025 243.176 478.979C227.685 481.933 212.643 487.488 204.612 500.413C197.111 512.485 197.118 529.172 204.633 550.009C204.892 550.729 205.159 551.441 205.432 552.145H206.128C205.829 551.367 205.533 550.588 205.245 549.789C197.801 529.146 197.775 512.649 205.165 500.753C213.1 487.981 228.061 482.502 243.466 479.582C246.155 485.266 248.751 491.002 251.331 496.697L251.612 497.317C260.574 517.1 269.843 536.191 281.981 552.145H282.791C270.544 536.162 261.223 516.957 252.203 497.05L251.923 496.429C249.364 490.781 246.789 485.097 244.136 479.46C247.619 478.816 251.121 478.299 254.563 477.858C264.167 476.62 274.072 475.522 283.634 474.484C286.43 474.176 289.231 473.865 292.036 473.552C304.002 487.952 317.733 498.77 329.286 506.331C335.477 510.355 341.868 514.061 348.435 517.435C337.395 525.785 326.66 534.566 316.176 543.144C312.542 546.113 308.874 549.103 305.173 552.114H306.211C309.701 549.282 313.162 546.459 316.594 543.648C327.15 535.012 337.964 526.164 349.081 517.767C354.898 520.76 360.761 523.478 366.612 525.987C358.62 531.069 352.105 538.942 348.167 548.499C347.674 549.695 347.243 550.905 346.846 552.117H347.529C347.905 550.988 348.307 549.861 348.767 548.743C352.715 539.16 359.284 531.295 367.339 526.294C383.671 533.232 399.72 538.381 413.513 542.461L414.032 542.615C419.844 544.333 425.788 546.095 431.047 548.922L431.488 548.418C426.143 545.519 420.114 543.746 414.216 541.992L413.697 541.838C400.047 537.8 384.179 532.712 368.014 525.878C370.109 524.629 372.314 523.572 374.601 522.722C391.445 516.493 410.115 520.469 426.585 523.978Z" fill="white"/>
<path d="M107.075 481.946C109.931 493.678 108.664 506.344 103.566 516.706C100.228 523.49 95.4078 529.634 89.4716 534.908C89.591 535.092 89.7104 535.274 89.8298 535.456C95.8621 530.112 100.76 523.88 104.147 516.991C109.31 506.497 110.605 493.668 107.703 481.79C105.437 472.511 100.879 464.66 94.5798 458.965L94.1619 459.463C100.355 465.065 104.84 472.804 107.075 481.946Z" fill="white"/>
<path d="M253.953 333.338C259.596 339.121 262.129 348.844 259.012 357.809C255.993 366.496 249.377 373.691 241.429 378.313C235.033 382.035 226.691 384.089 220.404 380.19C215.703 377.278 213.266 371.562 213.136 366.036C213.007 360.511 214.86 355.122 217.157 350.092C220.396 343.004 224.754 336.128 231.249 331.817C240.196 325.883 248.502 327.783 253.953 333.338Z" fill="#F7F0E3"/>
<path d="M179.009 232.059H132.199V211.16H179.009V232.059ZM133.172 231.086H178.035V212.12H133.172V231.086Z" fill="#E9DDCA"/>
<path d="M148.556 252.055H101.746V231.146H148.556V252.055ZM102.72 251.082H147.583V232.119H102.72V251.082Z" fill="#E9DDCA"/>
<path d="M445.349 274.338C442.319 264.261 436.987 254.997 429.354 246.548C421.721 238.098 411.292 231.109 398.066 225.581C384.854 220.057 368.069 217.296 347.711 217.296C331.469 217.296 314.915 219.486 298.05 223.868C281.186 228.249 266.538 234.508 254.106 242.644L270.272 287.028L261.608 294.036L274.173 297.729C286.577 291.239 297.877 286.525 308.072 283.589C318.268 280.652 329.091 279.192 340.541 279.208C351.997 279.208 360.67 281.969 366.56 287.493C372.451 293.016 375.392 299.678 375.385 307.478C375.385 316.905 372.365 325.275 366.324 332.588C360.283 339.9 353.594 347.296 346.257 354.774C341.175 359.966 336.243 365.324 331.462 370.851C326.691 376.374 322.455 382.337 318.811 388.659C315.09 395.121 312.129 401.991 309.985 409.133C307.748 416.449 306.634 424.654 306.645 433.749C306.645 436.685 306.707 440.176 306.878 444.24C306.907 444.991 306.946 445.72 306.99 446.442H295.112L308.075 455.207H371.103C370.756 452.949 370.594 450.667 370.62 448.383V442.527C370.64 436.916 371.775 431.365 373.96 426.196C376.209 420.8 379.012 415.651 382.324 410.833C385.693 405.917 389.445 401.274 393.545 396.947C397.679 392.55 401.659 388.402 405.485 384.504C410.567 379.313 415.815 373.789 421.23 367.934C426.553 362.203 431.349 356.004 435.56 349.412C439.772 342.75 443.214 335.632 445.819 328.193C448.523 320.559 449.881 312.189 449.891 303.084C449.901 293.979 448.387 284.397 445.349 274.338Z" fill="#E49B31"/>
<path d="M327.197 276.114C315.861 276.114 305.165 277.526 295.11 280.352C285.054 283.178 273.887 287.74 261.607 294.038L241.777 240.723C254.051 232.859 268.526 226.802 285.202 222.554C301.878 218.306 318.237 216.187 334.278 216.195C354.401 216.195 370.991 218.868 384.047 224.213C397.103 229.558 407.41 236.321 414.969 244.502C422.51 252.689 427.779 261.654 430.774 271.397C433.769 281.141 435.264 290.419 435.259 299.23C435.259 308.054 433.918 316.154 431.236 323.529C428.655 330.741 425.253 337.631 421.097 344.065C416.927 350.455 412.187 356.455 406.935 361.99C401.59 367.659 396.403 373.004 391.375 378.025C387.595 381.804 383.663 385.819 379.577 390.069C375.531 394.249 371.823 398.743 368.486 403.508C365.219 408.161 362.449 413.144 360.222 418.376C358.064 423.367 356.941 428.743 356.92 434.18V439.849C356.894 442.06 357.053 444.27 357.395 446.454H295.099C294.419 442.954 294.023 439.405 293.916 435.841C293.747 431.909 293.684 428.53 293.684 425.687C293.684 416.887 294.785 408.945 296.986 401.863C299.11 394.94 302.038 388.29 305.71 382.048C309.32 375.919 313.507 370.148 318.213 364.814C322.929 359.469 327.804 354.282 332.837 349.254C340.072 342.019 346.683 334.861 352.668 327.781C358.654 320.7 361.639 312.6 361.623 303.481C361.623 295.925 358.715 289.474 352.899 284.129C347.083 278.784 338.516 276.112 327.197 276.114Z" fill="#FBC343"/>
<path d="M375.411 516.397C375.411 527.76 371.733 536.532 364.375 542.713C357.017 548.894 348.698 551.989 339.417 551.997C330.12 551.997 321.797 548.903 314.45 542.713C307.102 536.524 303.429 527.751 303.429 516.397C303.429 505.047 307.103 496.275 314.452 490.08C325.777 480.524 342.532 478.4 355.791 485.102C367.554 491.056 375.411 503.141 375.411 516.397Z" fill="#E49B31"/>
<path d="M363.082 516.397C363.082 527.76 359.403 536.532 352.045 542.713C344.688 548.894 336.368 551.989 327.088 551.997C317.79 551.997 309.468 548.903 302.121 542.713C294.773 536.524 291.099 527.751 291.099 516.397C291.099 505.047 294.774 496.275 302.123 490.08C309.472 483.886 317.795 480.791 327.091 480.796C336.375 480.796 344.694 483.891 352.048 490.08C359.402 496.27 363.08 505.042 363.082 516.397Z" fill="#FBC343"/>
<path d="M173.651 359.683C176.745 357.566 177.537 353.342 175.42 350.248C173.304 347.154 169.08 346.362 165.986 348.479C162.892 350.596 162.1 354.82 164.217 357.914C166.333 361.007 170.558 361.799 173.651 359.683Z" fill="#D3DFFF"/>
<path d="M179.745 368.08C180.133 366.008 178.757 364.011 176.67 363.619C174.583 363.228 172.577 364.591 172.188 366.664C171.799 368.736 173.176 370.733 175.263 371.125C177.349 371.516 179.356 370.153 179.745 368.08Z" fill="#D3DFFF"/>
<path d="M179.351 324.829C182.071 310.323 172.516 296.358 158.009 293.638C143.502 290.918 129.537 300.473 126.817 314.979C124.097 329.485 133.652 343.45 148.159 346.17C162.665 348.89 176.631 339.336 179.351 324.829Z" fill="#D3DFFF"/>
<path d="M142.812 323.254C144.672 323.254 146.179 321.747 146.179 319.888C146.179 318.028 144.672 316.521 142.812 316.521C140.953 316.521 139.446 318.028 139.446 319.888C139.446 321.747 140.953 323.254 142.812 323.254Z" fill="white"/>
<path d="M153.075 323.254C154.935 323.254 156.442 321.747 156.442 319.888C156.442 318.028 154.935 316.521 153.075 316.521C151.216 316.521 149.709 318.028 149.709 319.888C149.709 321.747 151.216 323.254 153.075 323.254Z" fill="white"/>
<path d="M163.336 323.254C165.195 323.254 166.703 321.747 166.703 319.888C166.703 318.028 165.195 316.521 163.336 316.521C161.477 316.521 159.969 318.028 159.969 319.888C159.969 321.747 161.477 323.254 163.336 323.254Z" fill="white"/>
<path d="M133.93 538.62L136.427 548.247C137.078 550.757 139.505 552.454 142.192 552.27C150.379 551.714 167.39 549.708 177.155 542.511L174.381 528.637C160.956 527.879 148.403 528.637 137.522 532.284C134.812 533.203 133.232 535.931 133.93 538.62Z" fill="#102048"/>
<path d="M149.574 546.282C149.503 546.282 149.435 546.259 149.379 546.216C149.322 546.173 149.282 546.114 149.262 546.046L145.909 534.047C145.897 534.006 145.894 533.963 145.899 533.92C145.905 533.878 145.918 533.837 145.939 533.8C145.96 533.763 145.988 533.73 146.022 533.704C146.055 533.678 146.094 533.658 146.135 533.647C146.176 533.635 146.219 533.632 146.261 533.637C146.303 533.643 146.344 533.656 146.381 533.677C146.418 533.698 146.451 533.726 146.477 533.76C146.504 533.793 146.523 533.832 146.534 533.873L149.888 545.877C149.902 545.925 149.904 545.976 149.895 546.025C149.885 546.074 149.865 546.121 149.835 546.161C149.805 546.201 149.766 546.233 149.721 546.256C149.676 546.278 149.627 546.29 149.576 546.29L149.574 546.282Z" fill="white"/>
<path d="M156.821 544.66C156.75 544.66 156.682 544.636 156.626 544.594C156.569 544.551 156.529 544.491 156.509 544.424L153.156 532.419C153.133 532.336 153.144 532.247 153.186 532.172C153.228 532.098 153.299 532.042 153.382 532.019C153.465 531.996 153.553 532.007 153.628 532.049C153.703 532.092 153.758 532.162 153.781 532.245L157.135 544.25C157.149 544.298 157.151 544.349 157.142 544.398C157.132 544.447 157.112 544.493 157.082 544.533C157.052 544.573 157.013 544.606 156.968 544.628C156.923 544.651 156.874 544.662 156.824 544.662L156.821 544.66Z" fill="white"/>
<path d="M165.239 486.584L134.039 495.843L157.208 527.591L190.474 530.236L236.357 510.834L218.922 484.601L165.239 486.584Z" fill="#FBC343"/>
<path d="M203.704 490.994C272.229 470.712 283.235 531.267 176.327 542.29C172.551 538.041 168.138 530.67 166.386 524.505L222.841 498.417L203.704 490.994Z" fill="#FBC343"/>
<path d="M206.613 534.394C203.408 533.356 200.337 531.342 200.337 531.342L189.321 534.794L191.844 546.773L203.283 549.109C206.774 542.723 206.972 537.488 206.613 534.394Z" fill="#F9B384"/>
<path d="M166.63 524.926L166.142 524.085C177.921 517.24 208.088 500.797 233.793 495.946L233.974 496.904C208.415 501.724 178.362 518.107 166.63 524.926Z" fill="#E49B31"/>
<path d="M165.236 486.584C101.458 474.46 84.9422 535.749 191.849 546.765C195.823 542.338 198.727 537.058 200.337 531.332C183.914 520.345 165.555 509.9 145.431 499.951L165.236 486.584Z" fill="#FBC343"/>
<path d="M200.078 531.749C197.043 529.818 193.882 527.778 190.536 525.616C173.734 514.769 154.693 502.474 138.514 495.464L138.901 494.571C155.152 501.613 174.23 513.931 191.073 524.799C194.419 526.958 197.578 528.998 200.61 530.929L200.078 531.749Z" fill="#E49B31"/>
<path d="M118.444 516.973L117.593 516.503C119.986 512.169 123.822 509.236 128.99 507.816L129.25 508.753C124.271 510.131 120.739 512.82 118.444 516.973Z" fill="#E49B31"/>
<path d="M251.557 513.282C249.263 509.129 245.727 506.44 240.751 505.062L241.011 504.125C246.179 505.555 250.015 508.48 252.409 512.812L251.557 513.282Z" fill="#E49B31"/>
<path d="M185.877 546.246L185.168 545.571C190.271 540.107 193.404 534.34 194.749 527.937L195.701 528.137C194.315 534.716 191.104 540.637 185.877 546.246Z" fill="#E49B31"/>
<path d="M238.421 530.825C230.249 525.777 214.408 534.501 210.432 534.942C209.271 535.072 207.932 534.817 206.613 534.394C206.977 537.491 206.774 542.723 203.288 549.098L205.232 549.493C205.232 549.493 218.665 554.424 232.915 551.551C246.067 548.903 244.845 534.794 238.421 530.825Z" fill="#102048"/>
<path d="M227.283 547.338C227.249 547.338 227.216 547.333 227.184 547.323C227.143 547.31 227.105 547.289 227.073 547.262C227.04 547.235 227.013 547.201 226.993 547.163C226.973 547.125 226.961 547.084 226.957 547.041C226.954 546.999 226.958 546.956 226.971 546.915C227.942 543.842 228.365 537.794 225.554 533.732C225.505 533.661 225.486 533.574 225.502 533.489C225.518 533.405 225.566 533.33 225.637 533.281C225.708 533.232 225.795 533.213 225.88 533.229C225.965 533.244 226.04 533.293 226.089 533.364C229.032 537.618 228.601 543.915 227.592 547.12C227.569 547.184 227.528 547.24 227.472 547.279C227.417 547.318 227.35 547.339 227.283 547.338Z" fill="white"/>
<path d="M220.874 548.553C220.84 548.553 220.807 548.548 220.775 548.537C220.735 548.525 220.697 548.504 220.664 548.477C220.631 548.449 220.604 548.416 220.584 548.378C220.564 548.34 220.552 548.299 220.549 548.256C220.545 548.214 220.55 548.171 220.562 548.13C221.533 545.057 221.956 539.009 219.145 534.947C219.096 534.876 219.078 534.789 219.093 534.704C219.109 534.619 219.157 534.544 219.228 534.495C219.299 534.447 219.387 534.428 219.471 534.443C219.556 534.459 219.631 534.508 219.68 534.579C222.623 538.833 222.193 545.129 221.183 548.335C221.161 548.399 221.119 548.455 221.063 548.494C221.008 548.533 220.942 548.553 220.874 548.553Z" fill="white"/>
<path d="M153.953 407.56C153.953 407.56 170.015 393.902 169.42 391.307C168.995 389.451 164.444 392.171 164.444 392.171C164.444 392.171 170.825 384.6 170.5 383.681C169.921 382.038 165.506 385.101 165.506 385.101C165.506 385.101 168.488 380.808 167.063 380.107C165.638 379.406 162.529 382.054 162.529 382.054C162.529 382.054 164.346 379.671 163.492 379.045C162.638 378.42 158.957 380.992 158.957 380.992C158.957 380.992 160.278 377.986 157.472 379.126C154.667 380.265 134.986 398.333 134.986 398.333L153.953 407.56Z" fill="#F9B384"/>
<path d="M160.525 391.361C160.444 391.361 160.366 391.33 160.307 391.276C157.55 388.758 156.333 388.145 153.299 387.208C153.258 387.196 153.22 387.175 153.187 387.148C153.154 387.121 153.127 387.087 153.107 387.05C153.088 387.012 153.075 386.971 153.071 386.928C153.067 386.886 153.072 386.843 153.084 386.802C153.097 386.761 153.118 386.724 153.145 386.691C153.172 386.658 153.206 386.631 153.243 386.611C153.281 386.591 153.322 386.579 153.365 386.575C153.407 386.571 153.45 386.575 153.491 386.588C156.642 387.556 157.903 388.189 160.759 390.795C160.807 390.84 160.84 390.897 160.855 390.961C160.87 391.024 160.865 391.091 160.841 391.151C160.818 391.212 160.777 391.264 160.723 391.301C160.669 391.338 160.606 391.358 160.54 391.359L160.525 391.361Z" fill="#E28B6D"/>
<path d="M155.687 398.769H155.643C155.558 398.757 155.481 398.711 155.429 398.643C155.378 398.574 155.356 398.488 155.367 398.403C155.684 396.145 156.406 394.733 157.54 394.089C158.521 393.539 159.796 393.593 161.332 394.258C161.408 394.294 161.468 394.358 161.497 394.437C161.527 394.516 161.524 394.604 161.491 394.681C161.457 394.758 161.394 394.819 161.316 394.851C161.238 394.883 161.151 394.884 161.073 394.852C159.733 394.273 158.651 394.206 157.857 394.655C156.912 395.174 156.299 396.472 156.008 398.494C155.997 398.571 155.958 398.641 155.899 398.691C155.84 398.742 155.764 398.769 155.687 398.769Z" fill="#E28B6D"/>
<path d="M154.929 385.116C154.864 385.117 154.8 385.097 154.746 385.061C154.692 385.024 154.651 384.972 154.627 384.912C154.602 384.851 154.597 384.785 154.611 384.722C154.625 384.658 154.658 384.6 154.706 384.556L158.737 380.758C158.767 380.727 158.804 380.702 158.844 380.685C158.885 380.668 158.928 380.66 158.972 380.66C159.016 380.66 159.059 380.669 159.1 380.687C159.14 380.705 159.176 380.73 159.206 380.762C159.236 380.794 159.259 380.832 159.274 380.873C159.289 380.914 159.296 380.958 159.293 381.002C159.291 381.046 159.28 381.089 159.26 381.128C159.241 381.167 159.214 381.202 159.18 381.231L155.149 385.028C155.09 385.085 155.011 385.116 154.929 385.116Z" fill="#E28B6D"/>
<path d="M158.661 386.414C158.597 386.414 158.535 386.396 158.482 386.36C158.429 386.325 158.387 386.275 158.362 386.217C158.337 386.158 158.33 386.093 158.342 386.03C158.353 385.968 158.383 385.91 158.428 385.864L162.3 381.83C162.361 381.774 162.441 381.742 162.524 381.743C162.607 381.743 162.687 381.776 162.747 381.833C162.807 381.891 162.843 381.969 162.846 382.052C162.85 382.135 162.822 382.217 162.768 382.279L158.895 386.313C158.865 386.345 158.829 386.37 158.788 386.387C158.748 386.405 158.705 386.414 158.661 386.414Z" fill="#E28B6D"/>
<path d="M162.472 388.696C162.409 388.695 162.347 388.677 162.295 388.642C162.242 388.607 162.201 388.558 162.176 388.5C162.151 388.442 162.143 388.379 162.154 388.317C162.164 388.254 162.193 388.197 162.235 388.151L165.272 384.893C165.302 384.862 165.337 384.837 165.375 384.819C165.414 384.802 165.456 384.792 165.499 384.79C165.542 384.789 165.584 384.796 165.624 384.811C165.664 384.826 165.701 384.848 165.732 384.878C165.763 384.907 165.788 384.942 165.806 384.981C165.824 385.019 165.833 385.061 165.835 385.104C165.836 385.147 165.829 385.189 165.814 385.229C165.799 385.269 165.777 385.306 165.747 385.337L162.71 388.594C162.68 388.627 162.643 388.653 162.602 388.67C162.561 388.687 162.516 388.696 162.472 388.696Z" fill="#E28B6D"/>
<path d="M214.629 498.913L155.902 501.184L149.413 447.651C149.413 447.651 169.072 429.005 176.636 422.137L189.407 421.483C229.035 439.488 222.546 461.978 214.629 498.913Z" fill="#3A6BEA"/>
<path d="M189.407 421.483C189.407 421.483 234.732 425.358 249.021 456.411C263.004 486.797 205.544 497.615 205.544 497.615L189.407 421.483Z" fill="#3A6BEA"/>
<path d="M137.598 428.148L156.328 405.356L138.812 394.743C131.506 399.823 117.377 411.329 105.404 424.359C102.761 427.234 100.695 430.588 99.6569 434.292C98.7882 437.322 98.6003 440.506 99.1066 443.618C100.404 451.575 106.665 457.714 115.021 458.693C122.156 459.528 149.413 457.395 171.476 450.906L177.965 425.861C174.63 423.959 149.849 423.629 137.598 428.148Z" fill="#3A6BEA"/>
<g opacity="0.8">
<path opacity="0.8" d="M227.231 433.804L227.524 433.736L226.909 433.378C223.586 434.144 220.16 434.935 216.786 435.333C214.756 435.577 207.961 436.026 205.991 431.507C205.004 429.259 205.752 426.757 206.865 425.002L206.38 424.862C205.238 426.721 204.503 429.329 205.544 431.701C207.66 436.529 214.73 436.072 216.846 435.815C220.316 435.397 223.843 434.588 227.231 433.804Z" fill="white"/>
<path opacity="0.8" d="M248.385 468.825C246.22 467.99 243.973 467.123 241.637 467.346C237.512 467.735 233.982 471.816 233.767 476.43C233.621 479.584 234.826 482.888 237.12 485.793L237.533 485.533C235.288 482.709 234.109 479.504 234.252 476.449C234.454 472.057 237.787 468.184 241.681 467.818C243.916 467.611 246.005 468.415 248.214 469.267C248.993 469.57 249.805 469.879 250.62 470.139C250.662 469.983 250.703 469.825 250.74 469.666C249.94 469.417 249.156 469.124 248.385 468.825Z" fill="white"/>
<path opacity="0.8" d="M133.982 453.348C131.153 451.012 126.756 450.381 121.92 451.633C117.611 452.746 113.915 454.955 111.376 457.875C111.542 457.929 111.706 457.989 111.875 458.038C114.346 455.266 117.904 453.172 122.042 452.102C126.714 450.89 130.963 451.482 133.67 453.722C134.915 454.795 135.893 456.143 136.526 457.659L137.029 457.602C136.366 455.962 135.321 454.504 133.982 453.348Z" fill="white"/>
<path opacity="0.8" d="M108.399 421.161C113.702 419.842 118.875 417.992 123.649 415.243C125.452 414.205 127.487 412.881 128.92 410.937C130.444 408.86 130.95 406.405 130.275 404.349C130.009 403.561 129.556 402.848 128.954 402.273L128.58 402.579C129.144 403.11 129.568 403.773 129.813 404.508C130.439 406.415 129.961 408.712 128.531 410.654C127.153 412.525 125.157 413.815 123.407 414.828C118.906 417.423 114.037 419.214 109.035 420.509L108.399 421.161Z" fill="white"/>
</g>
<path d="M193.555 409.579V410.41L193.422 423.318L193.407 424.717C193.308 426.782 192.419 428.731 190.922 430.158C189.426 431.585 187.437 432.381 185.369 432.381C183.301 432.381 181.313 431.585 179.816 430.158C178.32 428.731 177.43 426.782 177.332 424.717L177.176 408.764L193.555 409.579Z" fill="#F9B384"/>
<path d="M193.547 410.41L193.415 423.318C186.24 420.398 183.292 412.632 183.292 412.632L193.547 410.41Z" fill="#102048"/>
<path d="M196.384 387.886C198.954 390.972 206.463 408.453 198.852 414.418C190.287 421.13 177.257 410.099 177.257 410.099L175.51 389.734L186.822 386.752L196.384 387.886Z" fill="#F9B384"/>
<path d="M169.745 386.765C169.745 386.765 144.653 399.851 165.111 437.573C167.738 442.418 173.56 444.531 178.539 442.169C179.8 441.567 180.924 440.711 181.84 439.656C182.756 438.6 183.445 437.367 183.863 436.034C184.282 434.7 184.421 433.295 184.273 431.905C184.125 430.515 183.691 429.171 183.001 427.956C179.655 422.012 176.423 414.355 177.809 408.661L169.745 386.765Z" fill="#102048"/>
<path d="M172.117 399.745C175.866 399.745 178.905 396.706 178.905 392.958C178.905 389.209 175.866 386.17 172.117 386.17C168.369 386.17 165.33 389.209 165.33 392.958C165.33 396.706 168.369 399.745 172.117 399.745Z" fill="#FBC343"/>
<path d="M180.465 401.113C179.73 396.879 179.284 393.975 183.564 391.792C183.564 391.792 198.647 394.536 201.526 388.844C204.405 383.152 200.018 374.174 190.832 380.411C167.315 375.817 164.162 397.824 171.292 405.159L178.329 404.08C178.665 404.028 178.988 403.91 179.278 403.732C179.568 403.554 179.82 403.32 180.019 403.044C180.218 402.768 180.36 402.455 180.436 402.123C180.513 401.792 180.523 401.448 180.465 401.113Z" fill="#102048"/>
<path d="M192.145 402.128C192.699 402.128 193.147 401.679 193.147 401.126C193.147 400.572 192.699 400.124 192.145 400.124C191.592 400.124 191.143 400.572 191.143 401.126C191.143 401.679 191.592 402.128 192.145 402.128Z" fill="#102048"/>
<path d="M198.93 398.785C199.484 398.785 199.932 398.336 199.932 397.783C199.932 397.229 199.484 396.781 198.93 396.781C198.377 396.781 197.928 397.229 197.928 397.783C197.928 398.336 198.377 398.785 198.93 398.785Z" fill="#102048"/>
<path d="M198.235 404.212C198.179 404.212 198.124 404.196 198.077 404.166C198.031 404.135 197.994 404.091 197.972 404.04C197.95 403.989 197.944 403.932 197.954 403.877C197.964 403.822 197.991 403.772 198.03 403.732C198.432 403.309 198.873 402.714 198.686 402.281C198.499 401.847 197.682 401.64 197.308 401.64C196.509 401.64 196.124 400.217 196.054 399.932C196.046 399.895 196.044 399.858 196.05 399.821C196.056 399.784 196.069 399.749 196.088 399.717C196.108 399.685 196.134 399.657 196.164 399.636C196.194 399.614 196.228 399.598 196.265 399.589C196.301 399.58 196.339 399.579 196.375 399.585C196.412 399.591 196.448 399.604 196.479 399.623C196.511 399.643 196.539 399.668 196.561 399.699C196.583 399.729 196.599 399.763 196.607 399.799C196.753 400.402 197.085 401.074 197.308 401.074C197.692 401.074 198.865 401.256 199.208 402.06C199.468 402.634 199.208 403.329 198.429 404.137C198.376 404.186 198.307 404.213 198.235 404.212Z" fill="#102048"/>
<path d="M198.287 408.017C198.23 408.017 198.175 408 198.128 407.968C196.241 406.693 194.333 407.763 194.315 407.773C194.25 407.81 194.172 407.821 194.099 407.801C194.027 407.781 193.965 407.733 193.927 407.668C193.89 407.602 193.88 407.525 193.899 407.452C193.919 407.379 193.967 407.317 194.032 407.28C194.123 407.228 196.267 406.026 198.445 407.495C198.496 407.529 198.535 407.578 198.555 407.636C198.576 407.693 198.578 407.756 198.56 407.814C198.542 407.872 198.506 407.923 198.457 407.96C198.407 407.996 198.348 408.015 198.287 408.014V408.017Z" fill="#102048"/>
<path d="M191.704 396.783C192.275 397.858 191.281 398.081 190.115 398.691C188.95 399.301 187.759 399.537 187.486 399.023C187.213 398.509 187.938 397.596 189.103 396.975C190.269 396.355 191.263 395.963 191.704 396.783Z" fill="#102048"/>
<path d="M195.95 394.844C196.21 395.802 196.916 395.384 197.954 395.104C198.993 394.824 199.834 394.31 199.714 393.853C199.595 393.396 198.655 393.246 197.614 393.518C196.573 393.791 195.756 394.105 195.95 394.844Z" fill="#102048"/>
<path opacity="0.4" d="M187.517 408.759C189.15 408.759 190.474 407.436 190.474 405.803C190.474 404.17 189.15 402.847 187.517 402.847C185.884 402.847 184.561 404.17 184.561 405.803C184.561 407.436 185.884 408.759 187.517 408.759Z" fill="#EB5D60"/>
<path d="M179.89 408.607C181.241 406.856 180.724 404.192 178.735 402.657C176.745 401.121 174.037 401.296 172.686 403.047C171.334 404.798 171.851 407.462 173.841 408.998C175.83 410.533 178.538 410.358 179.89 408.607Z" fill="#F9B384"/>
<path d="M178.046 407.298C177.971 407.298 177.899 407.268 177.846 407.215C177.793 407.162 177.763 407.09 177.763 407.015C177.766 406.606 177.667 406.202 177.477 405.84C177.286 405.478 177.009 405.168 176.67 404.939C176.404 404.746 176.095 404.621 175.769 404.576C175.444 404.531 175.112 404.566 174.804 404.679C174.769 404.699 174.73 404.71 174.69 404.714C174.651 404.717 174.611 404.712 174.573 404.699C174.535 404.686 174.501 404.665 174.472 404.638C174.443 404.611 174.42 404.577 174.404 404.54C174.389 404.504 174.382 404.464 174.383 404.424C174.384 404.384 174.394 404.345 174.411 404.309C174.428 404.273 174.453 404.241 174.484 404.216C174.514 404.19 174.55 404.171 174.588 404.16C174.982 404.01 175.406 403.96 175.824 404.013C176.242 404.066 176.64 404.221 176.984 404.464C177.4 404.745 177.74 405.124 177.974 405.567C178.209 406.011 178.331 406.505 178.329 407.007C178.33 407.045 178.323 407.083 178.309 407.118C178.296 407.153 178.275 407.185 178.249 407.212C178.222 407.239 178.191 407.261 178.156 407.276C178.121 407.29 178.083 407.298 178.046 407.298Z" fill="#102048"/>
<path d="M137.363 427.902L127.12 438.983L127.596 439.423L137.84 428.342L137.363 427.902Z" fill="#102048"/>
<path d="M209.531 475.54L209.342 474.92C216.799 472.646 224.038 469.929 230.597 461.724L231.116 462.129C224.43 470.476 217.095 473.235 209.531 475.54Z" fill="#102048"/>
<path d="M214.066 450.413H150.625C148.344 450.413 146.493 452.414 146.493 454.882V500.175C146.493 502.643 148.344 504.644 150.625 504.644H214.066C216.347 504.644 218.198 502.643 218.198 500.175V454.882C218.198 452.411 216.347 450.413 214.066 450.413Z" fill="#D3DFFF"/>
<path d="M185.687 474.665C185.747 474.668 185.806 474.682 185.86 474.707C185.914 474.732 185.963 474.767 186.003 474.811C186.044 474.855 186.075 474.907 186.096 474.963C186.116 475.019 186.126 475.078 186.123 475.138V479.919C186.126 479.979 186.116 480.038 186.096 480.094C186.075 480.15 186.044 480.202 186.003 480.245C185.963 480.289 185.914 480.325 185.86 480.35C185.806 480.375 185.747 480.389 185.687 480.391H178.996C178.936 480.389 178.877 480.375 178.823 480.35C178.769 480.325 178.72 480.289 178.68 480.245C178.639 480.202 178.608 480.15 178.587 480.094C178.567 480.038 178.557 479.979 178.56 479.919V475.127C178.557 475.068 178.567 475.008 178.587 474.952C178.608 474.896 178.639 474.845 178.68 474.801C178.72 474.757 178.769 474.722 178.823 474.696C178.877 474.671 178.936 474.657 178.996 474.655H185.687V474.665ZM185.687 473.357H178.996C178.531 473.363 178.088 473.552 177.763 473.884C177.438 474.216 177.258 474.663 177.262 475.127V479.908C177.258 480.373 177.438 480.82 177.763 481.152C178.088 481.484 178.531 481.673 178.996 481.679H185.687C186.152 481.673 186.595 481.484 186.92 481.152C187.245 480.82 187.425 480.373 187.421 479.908V475.127C187.425 474.663 187.245 474.216 186.92 473.884C186.595 473.552 186.152 473.363 185.687 473.357Z" fill="#1F3C88"/>
</g>
<defs>
<filter id="filter0_d" x="54.1554" y="211.16" width="426.596" height="391.29" filterUnits="userSpaceOnUse" color-interpolation-filters="sRGB">
<feFlood flood-opacity="0" result="BackgroundImageFix"/>
<feColorMatrix in="SourceAlpha" type="matrix" values="0 0 0 0 0 0 0 0 0 0 0 0 0 0 0 0 0 0 127 0" result="hardAlpha"/>
<feOffset dy="25"/>
<feGaussianBlur stdDeviation="12.5"/>
<feComposite in2="hardAlpha" operator="out"/>
<feColorMatrix type="matrix" values="0 0 0 0 0 0 0 0 0 0 0 0 0 0 0 0 0 0 0.25 0"/>
<feBlend mode="normal" in2="BackgroundImageFix" result="effect1_dropShadow"/>
<feBlend mode="normal" in="SourceGraphic" in2="effect1_dropShadow" result="shape"/>
</filter>
</defs>
</svg>
